<?xml version="1.0" standalone="no"?>
<!DOCTYPE svg PUBLIC "-//W3C//DTD SVG 20010904//EN"
 "http://www.w3.org/TR/2001/REC-SVG-20010904/DTD/svg10.dtd">
<svg version="1.0" xmlns="http://www.w3.org/2000/svg"
 width="480.000000pt" height="480.000000pt" viewBox="0 0 480.000000 480.000000"
 preserveAspectRatio="xMidYMid meet">
<metadata>
Created by potrace 1.11, written by Peter Selinger 2001-2013
</metadata>
<g transform="translate(0.000000,480.000000) scale(0.100000,-0.100000)"
fill="#000000" stroke="none">
<path d="M0 2400 l0 -2400 2400 0 2400 0 0 2400 0 2400 -2400 0 -2400 0 0
-2400z m2480 1375 c86 -58 237 -194 328 -295 277 -310 453 -633 524 -964 28
-133 31 -386 5 -488 -83 -329 -310 -582 -615 -687 -275 -94 -589 -52 -831 110
-279 186 -434 498 -418 844 20 429 247 888 626 1265 122 121 285 250 316 250
7 0 37 -16 65 -35z"/>
<path d="M2305 3522 c-108 -96 -235 -237 -325 -360 -236 -324 -351 -649 -337
-956 9 -214 74 -364 222 -511 173 -173 348 -242 585 -232 207 9 364 79 510
226 160 162 229 330 230 557 0 301 -129 640 -360 944 -88 116 -229 268 -319
345 -46 39 -88 71 -94 73 -7 1 -57 -38 -112 -86z m615 -1109 c20 -25 22 -36
16 -100 -8 -99 -38 -185 -93 -266 -95 -141 -261 -237 -409 -237 -56 0 -65 3
-84 27 -17 21 -20 36 -16 63 7 46 33 66 97 73 73 9 171 58 227 114 65 66 100
140 111 238 11 92 29 115 91 115 30 0 43 -6 60 -27z"/>
</g>
</svg>
