<svg width="40" height="40" viewBox="0 0 40 40" xmlns="http://www.w3.org/2000/svg">
<path fill-rule="evenodd" clip-rule="evenodd" d="M20 40C31.0449 40 40 31.0459 40 20C40 8.9541 31.0449 0 20 0C8.95508 0 0 8.9541 0 20C0 31.0459 8.95508 40 20 40ZM29.4062 14.6885C30.3184 14.584 31.1875 14.354 32 14.0088C31.3965 14.877 30.627 15.6304 29.7246 16.2368C29.7363 16.4253 29.7363 16.603 29.7363 16.7915C29.7363 22.4614 25.209 29 16.9121 29C14.3633 29 12 28.2886 10 27.0752C10.3516 27.1167 10.7148 27.1377 11.0762 27.1377C13.1973 27.1377 15.1426 26.4473 16.6816 25.2964C14.7148 25.2651 13.0449 24.0205 12.4727 22.3149C12.748 22.3569 13.0332 22.3882 13.3184 22.3882C13.7246 22.3882 14.1328 22.3359 14.5059 22.2417C12.4395 21.855 10.8906 20.1182 10.8906 18.0361V17.9839C11.4941 18.2979 12.1973 18.4966 12.9336 18.5176C11.7148 17.7432 10.9238 16.4253 10.9238 14.9395C10.9238 14.1553 11.1543 13.4229 11.5391 12.7847C13.7695 15.3896 17.0879 17.0947 20.8359 17.2725C20.7578 16.9482 20.7148 16.624 20.7148 16.2891C20.7148 13.9248 22.7246 12 25.2207 12C26.5273 12 27.6914 12.5229 28.5156 13.3599C29.5488 13.1611 30.5156 12.8057 31.3848 12.314C31.0547 13.3184 30.3398 14.1553 29.4062 14.6885Z"/>
</svg>
