<svg width="40" height="40" viewBox="0 0 40 40" xmlns="http://www.w3.org/2000/svg">
<path fill-rule="evenodd" clip-rule="evenodd" d="M21 37.8757C22.6973 37.4572 24.4922 35.966 26.0254 33.1783C26.5742 32.1804 27.0645 31.0537 27.4824 29.8206C25.4805 29.3607 23.2988 29.0778 21 29.0139V37.8757ZM19 37.8757V29.0139C16.7012 29.0778 14.5195 29.3606 12.5176 29.8206C12.9355 31.0537 13.4258 32.1804 13.9746 33.1783C15.5078 35.966 17.3027 37.4572 19 37.8757ZM11.9512 27.8991C14.1445 27.3863 16.5195 27.0786 19 27.0132V21H11.0137C11.084 23.4768 11.418 25.8054 11.9512 27.8991ZM9.01367 21C9.08594 23.6396 9.4375 26.1448 10.0195 28.4182C8.28711 28.9469 6.69727 29.6108 5.29883 30.3883C3.40039 27.708 2.21875 24.4861 2.02734 21H9.01367ZM11.0137 19H19V13.7109C16.457 13.6439 14.0234 13.322 11.7852 12.7856C11.3477 14.698 11.0762 16.79 11.0137 19ZM9.85547 12.2552C9.37109 14.3464 9.07812 16.6184 9.01367 19H2.02734C2.20508 15.7372 3.25391 12.7058 4.94336 10.1333C6.38281 10.9731 8.03906 11.6889 9.85547 12.2552ZM12.3008 10.853C14.3613 11.3428 16.6191 11.644 19 11.7103V2.12427C17.3027 2.54285 15.5078 4.034 13.9746 6.82172C13.3281 7.99854 12.7617 9.35455 12.3008 10.853ZM14.2617 2.93365C12.6406 4.74023 11.2949 7.28967 10.3711 10.3216C8.80078 9.82642 7.37695 9.21564 6.14062 8.5144C8.25391 5.96655 11.0547 4.01105 14.2617 2.93365ZM20 0C31.0449 0 40 8.95428 40 20C40 31.0457 31.0449 40 20 40C8.95508 40 0 31.0457 0 20C0 8.95428 8.95508 0 20 0ZM14.2617 37.0662C11.2656 36.0591 8.62109 34.285 6.5625 31.9773C7.75391 31.3428 9.10547 30.7894 10.582 30.3374C11.4941 33.0801 12.7598 35.392 14.2617 37.0662ZM25.7383 37.0662C28.7344 36.0592 31.3789 34.2852 33.4375 31.9775C32.2461 31.343 30.8945 30.7895 29.418 30.3375C28.5059 33.0801 27.2402 35.3921 25.7383 37.0662ZM29.9805 28.4183C31.7129 28.947 33.3027 29.6109 34.7012 30.3883C36.5996 27.708 37.7812 24.4861 37.9727 21H30.9863C30.9141 23.6398 30.5625 26.1449 29.9805 28.4183ZM28.9863 21H21V27.0132C23.4805 27.0786 25.8555 27.3864 28.0488 27.8994C28.582 25.8055 28.916 23.4769 28.9863 21ZM28.9863 19H21V13.7109C23.543 13.6439 25.9766 13.322 28.2148 12.7856C28.6523 14.698 28.9238 16.79 28.9863 19ZM30.9863 19H37.9727C37.7949 15.7372 36.7461 12.7058 35.0566 10.1333C33.6172 10.9731 31.9609 11.6889 30.1445 12.2552C30.6289 14.3464 30.9219 16.6184 30.9863 19ZM29.6289 10.3211C31.1992 9.82599 32.623 9.21533 33.8594 8.51428C31.7461 5.96643 28.9453 4.01093 25.7383 2.93359C27.3594 4.74011 28.7051 7.28937 29.6289 10.3211ZM27.6992 10.8525C25.6387 11.3426 23.3809 11.644 21 11.7103V2.12427C22.6973 2.54285 24.4922 4.034 26.0254 6.82172C26.6719 7.99847 27.2383 9.35431 27.6992 10.8525Z"/>
</svg>
