<svg width="40" height="40" viewBox="0 0 40 40" xmlns="http://www.w3.org/2000/svg">
<path fill-rule="evenodd" clip-rule="evenodd" d="M20 40C31.0449 40 40 31.0459 40 20C40 8.9541 31.0449 0 20 0C8.95508 0 0 8.9541 0 20C0 31.0459 8.95508 40 20 40ZM17.5547 31.8057L17.5449 31.9897C18.9648 31.9897 20.3848 31.9897 21.8242 32V31.7344V20.7778V20.604H21.9746H25.1348C25.2383 20.604 25.291 20.604 25.3184 20.5781C25.3516 20.5503 25.3555 20.4917 25.3691 20.3691C25.4355 19.7456 25.502 19.1323 25.5762 18.519L25.6934 17.5381L25.8398 16.3115C25.8691 16.1479 25.8594 16.1479 25.6992 16.1479H21.9746H21.8242C21.8145 16.0967 21.8145 16.0762 21.8145 16.0459L21.8125 15.1069C21.8105 14.4834 21.8086 13.8613 21.8145 13.2349C21.8145 12.9795 21.8438 12.7241 21.8906 12.4683C22.0039 11.8452 22.3516 11.4258 22.9238 11.293C23.2168 11.2217 23.5273 11.1909 23.8379 11.1807C24.2871 11.1738 24.7344 11.1763 25.1836 11.1782L25.8594 11.1807C25.9727 11.1807 26 11.1499 26 11.0273V9.00391V7.28662C26 7.18457 25.9727 7.14355 25.877 7.14355C25.793 7.13867 25.7109 7.12842 25.6309 7.11816L25.3789 7.09229L24.4863 7.05713C23.8965 7.03223 23.3047 7.00732 22.7188 7.00049C21.9473 6.99023 21.1953 7.14355 20.4707 7.46045C19.3984 7.95117 18.6074 8.7583 18.1094 9.90332C17.7422 10.7412 17.5742 11.6406 17.5645 12.5605C17.5488 13.4194 17.5508 14.2837 17.5527 15.1455L17.5547 16.0049V16.1377H17.4043H14.1504C14.0371 16.1377 14 16.1685 14 16.291V20.4404C14 20.5161 14 20.5542 14.0195 20.5723C14.0391 20.5913 14.0781 20.5889 14.1602 20.5835H17.4141H17.5547V20.7266V31.8057Z"/>
</svg>
