<svg width="40" height="40" viewBox="0 0 40 40" xmlns="http://www.w3.org/2000/svg">
<path fill-rule="evenodd" clip-rule="evenodd" d="M20 40C31.0449 40 40 31.0459 40 20C40 8.9541 31.0449 0 20 0C8.95508 0 0 8.9541 0 20C0 31.0459 8.95508 40 20 40ZM15.2578 15.3149V28H11.3125V15.3149H15.2578ZM13.2852 9C14.5391 9 15.5703 10.0156 15.5703 11.2896C15.5703 12.5454 14.5566 13.5791 13.2852 13.5791C12.0137 13.5791 11 12.5454 11 11.2896C11 10.0156 12.0137 9 13.2852 9ZM17.7266 15.3149H21.5039V17.0508H21.5605C22.0938 16.0537 23.3652 15.001 25.2832 15.001C29.2637 15.001 30 17.623 30 21.0391V28H26.0566V21.833C26.0566 20.3555 26.0371 18.4722 24.0098 18.4722C21.9648 18.4722 21.6523 20.0786 21.6523 21.7222V28H17.7266V15.3149Z"/>
</svg>
