<svg width="40" height="40" viewBox="0 0 40 40" xmlns="http://www.w3.org/2000/svg">
<path fill-rule="evenodd" clip-rule="evenodd" d="M20 40C31.0449 40 40 31.0459 40 20C40 8.9541 31.0449 0 20 0C8.95508 0 0 8.9541 0 20C0 31.0459 8.95508 40 20 40ZM27.2754 26.9448C28.5 26.9961 29.873 27.0537 29.9785 26.2046C30.0234 25.855 29.6348 25.3037 29.3828 24.9463L29.2617 24.7725C28.584 23.9189 27.998 23.3618 27.1641 22.5986L27.0176 22.4683C26.6621 22.1543 26.2715 21.8115 26.25 21.3789C26.2168 20.833 26.668 20.2876 26.9961 19.8887L27.1641 19.6816L27.2988 19.5068L27.3516 19.4375L27.4004 19.3823L27.4277 19.3477L27.502 19.252L27.5469 19.1992L27.6426 19.0771L27.8652 18.8027C28.377 18.1748 28.8672 17.5718 29.3652 16.77C29.5527 16.4629 30.166 15.3545 29.957 14.9141C29.7617 14.4951 28.8496 14.5396 28.0918 14.5767C27.8887 14.5864 27.6992 14.5957 27.5352 14.5957C27.2383 14.5957 26.9336 14.5771 26.6367 14.5591C25.9766 14.519 25.3457 14.481 24.8984 14.6489C24.5664 14.7729 24.3398 15.3286 24.1445 15.8086C24.0898 15.9448 24.0371 16.0747 23.9844 16.187C23.6328 16.9346 23.332 17.5391 22.9766 18.1064L22.8965 18.2339L22.8809 18.2603L22.7988 18.3823L22.7832 18.4038L22.6328 18.6265L22.6055 18.6636L22.5469 18.7432L22.4883 18.8276L22.4395 18.897L22.3633 18.9976L22.3203 19.0557L22.1973 19.2148L22.0449 19.4194C21.7578 19.8115 21.457 20.2217 20.959 20.2754L20.8945 20.228L20.873 20.2119L20.8359 20.1802L20.8145 20.1592L20.7812 20.127L20.7598 20.106L20.7285 20.0742C20.7168 20.0635 20.7109 20.0581 20.707 20.0474L20.6797 20.0103L20.6641 19.9839L20.6367 19.9468L20.6211 19.9204L20.6113 19.9004L20.5996 19.8779L20.582 19.8516L20.5605 19.8037L20.5508 19.7822L20.5176 19.7134L20.5117 19.6978L20.5 19.6655L20.4902 19.6392L20.4805 19.6128L20.4648 19.5649L20.4531 19.5332L20.4434 19.4854L20.4375 19.4536L20.4258 19.4058L20.4219 19.374C20.416 19.3584 20.4102 19.3423 20.4102 19.3262L20.4043 19.2944L20.4004 19.2466L20.3945 19.2148L20.3887 19.1567C20.3828 19.1514 20.3828 19.1406 20.3828 19.1304L20.3789 19.061V19.0454L20.373 18.9551V18.9341V18.8647V18.833V18.7749V18.7378V18.6792V18.6421V18.584V18.5469V18.4883V18.4512V18.3877V18.356C20.3789 18.3345 20.3789 18.3081 20.3789 18.2871V18.2603L20.3887 18.064L20.3945 17.9795V17.9424V17.8945L20.4043 17.5605C20.4121 17.3076 20.4375 17.0332 20.4629 16.752C20.5371 15.96 20.6152 15.1191 20.2969 14.5908C19.9277 13.9761 18.7168 13.9912 17.6953 14.0039L17.2832 14.0073C15.998 14.0073 14.9258 14.0815 14.5391 14.856C14.6953 14.9473 14.8496 15.0088 14.9961 15.0674C15.291 15.1851 15.5547 15.2896 15.7227 15.5981C15.9824 16.0596 16.0195 17.1099 15.998 18.0005C15.9922 18.0483 15.9922 18.0962 15.9922 18.1436C15.9707 18.9497 15.9219 20.2173 15.4004 20.3179C14.9219 20.4121 14.5098 19.7974 14.2148 19.3613L14.1094 19.2046L13.9629 18.9976L13.9258 18.9395L13.8242 18.7905L13.7969 18.7544L13.7812 18.7324L13.6777 18.5786L13.6465 18.5308L13.5176 18.3345C13.0918 17.6772 12.7207 17.0088 12.3281 16.1816L12.1758 15.8472C11.959 15.3672 11.7129 14.8203 11.4668 14.6968C11.084 14.5044 10.3848 14.5391 9.76172 14.5698C9.54297 14.5806 9.33594 14.5908 9.15234 14.5908C8.98047 14.5908 8.81055 14.585 8.64258 14.5791C7.99805 14.5566 7.40039 14.5361 7 14.856C7 15.605 7.34766 16.2866 7.66406 16.9067L7.80664 17.189C8.28711 18.1543 8.78125 19.0825 9.32422 19.9785L9.40039 20.1006L9.58789 20.4082L9.67383 20.5459L9.86914 20.8535L9.92969 20.9541L9.94336 20.9756L10 21.061L10.2227 21.3999L10.5039 21.8081L10.5957 21.9355L10.7988 22.2217L10.9023 22.3652L11.1113 22.6514L11.209 22.7788L11.3008 22.8994L11.5195 23.1816C12.9082 24.937 14.4961 26.5703 17.6016 26.894C18.5859 26.9946 20.0117 27.1006 20.3457 26.5229C20.502 26.251 20.5293 25.8418 20.5566 25.4302C20.5996 24.7563 20.6426 24.0757 21.2598 23.9771C21.8281 23.8867 22.3223 24.502 22.6914 24.9639C22.7773 25.0708 22.8574 25.1699 22.9297 25.25C23.6074 26.0029 24.3984 26.8091 25.5664 27H25.6738C26.0332 26.8926 26.6348 26.9175 27.2754 26.9448Z"/>
</svg>
