<svg width="63" height="63" viewBox="0 0 63 63" fill="none" xmlns="http://www.w3.org/2000/svg">
<path opacity="0.5" fill-rule="evenodd" clip-rule="evenodd" d="M31.2437 2C15.0929 2 2 15.0929 2 31.2437C2 47.3946 15.0929 60.4875 31.2437 60.4875C47.3946 60.4875 60.4875 47.3946 60.4875 31.2437C60.4875 29.2394 60.286 27.2832 59.9025 25.3939C59.7926 24.8527 60.1423 24.3248 60.6835 24.215C61.2248 24.1051 61.7526 24.4548 61.8625 24.9961C62.2724 27.0156 62.4875 29.1051 62.4875 31.2437C62.4875 48.4992 48.4992 62.4875 31.2437 62.4875C13.9883 62.4875 0 48.4992 0 31.2437C0 13.9883 13.9883 0 31.2437 0C33.3824 0 35.4719 0.215031 37.4914 0.624971C38.0327 0.734838 38.3824 1.26267 38.2725 1.80392C38.1626 2.34516 37.6348 2.69486 37.0935 2.585C35.2042 2.20149 33.248 2 31.2437 2Z" fill="#828282"/>
<path fill-rule="evenodd" clip-rule="evenodd" d="M49.9016 7.11415V0H33.2676V7.11415C33.2676 7.11415 33.2676 11.0665 36.292 14.2283C39.3163 17.3901 41.5846 17.3901 41.5846 17.3901C41.5846 17.3901 43.8529 17.3901 46.8773 14.2283C49.9016 11.0665 49.9016 7.11415 49.9016 7.11415ZM41.5846 15.3811C41.5933 15.3795 41.6027 15.3778 41.6128 15.3759C41.7407 15.3516 41.985 15.292 42.3252 15.1498C42.9994 14.8678 44.097 14.2415 45.432 12.8459C46.6538 11.5685 47.2776 10.1172 47.5943 8.95828C47.7519 8.38191 47.8292 7.89243 47.8669 7.55745C47.8857 7.39062 47.8944 7.26418 47.8984 7.18688C47.9004 7.1483 47.9012 7.12218 47.9015 7.10963C47.9016 7.10744 47.9016 7.1043 47.9016 7.1043V2H35.2676V7.1043C35.2676 7.1043 35.2676 7.10743 35.2677 7.10963C35.268 7.12218 35.2688 7.1483 35.2708 7.18688C35.2748 7.26418 35.2835 7.39062 35.3023 7.55745C35.34 7.89243 35.4174 8.38191 35.5749 8.95828C35.8916 10.1172 36.5154 11.5685 37.7372 12.8459C39.0722 14.2415 40.1698 14.8678 40.844 15.1498C41.1842 15.292 41.4285 15.3516 41.5564 15.3759C41.5665 15.3778 41.5759 15.3795 41.5846 15.3811Z" transform="translate(13.0977 0.244141)" fill="#828282"/>
<path fill-rule="evenodd" clip-rule="evenodd" d="M33.2169 33.6595C34.0417 32.3094 34.2925 31.3776 34.2925 30.9996C34.2925 30.6216 34.0417 29.6897 33.2169 28.3397C32.4363 27.062 31.2707 25.623 29.7854 24.2745C26.7989 21.5629 22.7203 19.3899 18.1462 19.3899C13.5722 19.3899 9.49362 21.5629 6.50707 24.2745C5.02177 25.623 3.85621 27.062 3.0756 28.3397C2.25076 29.6897 2 30.6216 2 30.9996C2 31.3776 2.25076 32.3094 3.0756 33.6595C3.85621 34.9371 5.02177 36.3761 6.50707 37.7247C9.49362 40.4363 13.5722 42.6092 18.1462 42.6092C22.7203 42.6092 26.7989 40.4363 29.7854 37.7247C31.2707 36.3761 32.4363 34.9371 33.2169 33.6595ZM18.1462 44.6092C28.5741 44.6092 36.2925 34.7355 36.2925 30.9996C36.2925 27.2636 28.5741 17.3899 18.1462 17.3899C7.71834 17.3899 0 27.2636 0 30.9996C0 34.7355 7.71834 44.6092 18.1462 44.6092Z" transform="translate(13.0977 0.244141)" fill="#828282"/>
<path fill-rule="evenodd" clip-rule="evenodd" d="M18.1466 35.8047C20.8003 35.8047 22.9515 33.6535 22.9515 30.9999C22.9515 28.3463 20.8003 26.1951 18.1466 26.1951C15.493 26.1951 13.3418 28.3463 13.3418 30.9999C13.3418 33.6535 15.493 35.8047 18.1466 35.8047ZM18.1466 37.8047C21.9048 37.8047 24.9515 34.7581 24.9515 30.9999C24.9515 27.2417 21.9048 24.1951 18.1466 24.1951C14.3884 24.1951 11.3418 27.2417 11.3418 30.9999C11.3418 34.7581 14.3884 37.8047 18.1466 37.8047Z" transform="translate(13.0977 0.244141)" fill="#828282"/>
<path fill-rule="evenodd" clip-rule="evenodd" d="M19.6587 29.9998C20.211 29.9998 20.6587 30.4475 20.6587 30.9998C20.6587 31.8485 20.2531 32.495 19.7543 32.9058C19.2835 33.2935 18.6843 33.5119 18.1465 33.5119C17.5942 33.5119 17.1465 33.0642 17.1465 32.5119C17.1465 31.9597 17.5942 31.5119 18.1465 31.5119C18.1465 31.5119 18.1501 31.5119 18.1566 31.5112C18.1636 31.5105 18.1732 31.5092 18.1853 31.5068C18.2099 31.502 18.2409 31.4937 18.276 31.4806C18.348 31.4537 18.421 31.413 18.4829 31.362C18.5961 31.2687 18.6587 31.1592 18.6587 30.9998C18.6587 30.4475 19.1064 29.9998 19.6587 29.9998Z" transform="translate(13.0977 0.244141)" fill="#828282"/>
</svg>
