<svg width="62" height="63" viewBox="0 0 62 63" fill="none" xmlns="http://www.w3.org/2000/svg">
<path opacity="0.5" fill-rule="evenodd" clip-rule="evenodd" d="M31 2C14.9837 2 2 14.9837 2 31C2 47.0163 14.9837 60 31 60C47.0163 60 60 47.0163 60 31C60 29.0124 59.8002 27.0725 59.4199 25.1989C59.31 24.6577 59.6597 24.1299 60.201 24.02C60.7422 23.9101 61.27 24.2598 61.3799 24.8011C61.7866 26.8048 62 28.878 62 31C62 48.1208 48.1208 62 31 62C13.8792 62 0 48.1208 0 31C0 13.8792 13.8792 0 31 0C33.122 0 35.1952 0.213352 37.1989 0.620095C37.7402 0.729963 38.0899 1.25779 37.98 1.79904C37.8701 2.34029 37.3423 2.68999 36.8011 2.58012C34.9275 2.19981 32.9876 2 31 2Z" transform="translate(0 0.244141)" fill="#828282"/>
<path fill-rule="evenodd" clip-rule="evenodd" d="M41.25 17C40.6973 17 40.25 16.5525 40.25 16V9.50024H33.75C33.1973 9.50024 32.75 9.05249 32.75 8.50024C32.75 7.948 33.1973 7.50024 33.75 7.50024H40.25V1C40.25 0.447754 40.6973 0 41.25 0C41.8027 0 42.25 0.447754 42.25 1V7.50049H48.75C49.3027 7.50049 49.75 7.94824 49.75 8.50049C49.75 9.05273 49.3027 9.50049 48.75 9.50049H42.25V16C42.25 16.5525 41.8027 17 41.25 17ZM20.25 31.5002C20.8027 31.5002 21.25 31.948 21.25 32.5002C21.25 33.345 20.8457 33.9885 20.3496 34.3972C19.8809 34.783 19.2852 35.0002 18.75 35.0002C18.1973 35.0002 17.75 34.5525 17.75 34.0002C17.75 33.448 18.1973 33.0002 18.75 33.0002L18.7871 32.9954L18.875 32.9697C18.9473 32.9434 19.0176 32.9033 19.0781 32.8533C19.1895 32.762 19.25 32.6555 19.25 32.5002C19.25 31.948 19.6973 31.5002 20.25 31.5002ZM18.75 37.2502C21.373 37.2502 23.5 35.1235 23.5 32.5002C23.5 30.5369 22.4883 28.5425 21.1504 26.9534C20.4961 26.1763 19.8164 25.563 19.2598 25.1614C19.0547 25.0146 18.8848 24.908 18.75 24.8345C18.6152 24.908 18.4453 25.0146 18.2402 25.1614C17.6836 25.563 17.0039 26.1763 16.3496 26.9534C15.0117 28.5425 14 30.5369 14 32.5002C14 35.1235 16.127 37.2502 18.75 37.2502ZM18.75 39.2502C22.4785 39.2502 25.5 36.2283 25.5 32.5002C25.5 32.3328 25.4941 32.166 25.4844 32.0002H29.25C31.4805 32.0002 33.4688 30.9565 34.75 29.3306V38.5002C34.75 40.7095 32.959 42.5002 30.75 42.5002H6C3.79102 42.5002 2 40.7095 2 38.5002V29.3306C3.28125 30.9565 5.26953 32.0002 7.5 32.0002H12.0156C12.0059 32.166 12 32.3328 12 32.5002C12 36.2283 15.0215 39.2502 18.75 39.2502ZM29.25 30.0002H25.1133C23.8711 25.9099 19.9863 22.7502 18.75 22.7502C17.5137 22.7502 13.6289 25.9099 12.3867 30.0002H7.5C4.73828 30.0002 2.5 27.7617 2.5 25.0002V20.2502H34.25V25.0002C34.25 27.7617 32.0117 30.0002 29.25 30.0002ZM0 38.5002V18.2502H10.25V17.0002C10.25 14.2388 12.4883 12.0002 15.25 12.0002H21.5C24.2617 12.0002 26.5 14.2388 26.5 17.0002V18.2502H36.75V38.5002C36.75 41.814 34.0645 44.5002 30.75 44.5002H6C2.68555 44.5002 0 41.814 0 38.5002ZM24.5 18.2502V17.0002C24.5 15.3435 23.1562 14.0002 21.5 14.0002H15.25C13.5938 14.0002 12.25 15.3435 12.25 17.0002V18.2502H24.5Z" transform="translate(12.25 0.243896)" fill="#828282"/>
</svg>
