<svg width="63" height="63" viewBox="0 0 63 63" fill="none" xmlns="http://www.w3.org/2000/svg">
<path opacity="0.5" fill-rule="evenodd" clip-rule="evenodd" d="M31.1235 2C15.039 2 2 15.039 2 31.1235C2 47.2079 15.039 60.2469 31.1235 60.2469C47.2079 60.2469 60.2469 47.2079 60.2469 31.1235C60.2469 29.1274 60.0462 27.1792 59.6643 25.2977C59.5545 24.7565 59.9042 24.2286 60.4454 24.1188C60.9866 24.0089 61.5145 24.3586 61.6243 24.8998C62.0327 26.9116 62.2469 28.993 62.2469 31.1235C62.2469 48.3125 48.3125 62.2469 31.1235 62.2469C13.9344 62.2469 0 48.3125 0 31.1235C0 13.9344 13.9344 0 31.1235 0C33.2539 0 35.3353 0.214202 37.3471 0.622565C37.8883 0.732432 38.238 1.26026 38.1282 1.80151C38.0183 2.34276 37.4905 2.69246 36.9492 2.58259C35.0677 2.20066 33.1195 2 31.1235 2Z" fill="#828282"/>
<path fill-rule="evenodd" clip-rule="evenodd" d="M42.7227 13.9062C44.7832 12.8748 46.1973 10.7444 46.1973 8.28394C46.1973 4.81348 43.3828 2 39.9121 2C37.5527 2 35.498 3.2998 34.4238 5.22217C34.4121 5.49072 34.293 5.75122 34.082 5.9353C33.7891 6.66089 33.6289 7.45361 33.6289 8.28394C33.6289 11.7544 36.4414 14.5679 39.9121 14.5679C40.7051 14.5679 41.4629 14.4209 42.1621 14.1528C42.3203 14.0144 42.5195 13.9275 42.7227 13.9062ZM43.4355 15.7834C42 17.7737 39.668 19.0737 37.0312 19.0737C32.6562 19.0737 29.123 15.5042 29.123 11.1162C29.123 8.42334 30.4551 6.04199 32.4902 4.60229C33.8457 1.87451 36.6602 0 39.9121 0C44.4883 0 48.1973 3.70874 48.1973 8.28394C48.1973 11.5991 46.25 14.4595 43.4355 15.7834ZM39.4453 16.5549C38.707 16.8884 37.8906 17.0737 37.0312 17.0737C33.7754 17.0737 31.123 14.4133 31.123 11.1162C31.123 10.2478 31.3086 9.4231 31.6387 8.67944C31.8379 12.9163 35.2188 16.3203 39.4453 16.5549ZM2 36.6421V37.1729C2 38.8296 3.34375 40.1729 5 40.1729H31.1484C32.8047 40.1729 34.1484 38.8296 34.1484 37.1729V36.6421H2ZM31.1484 42.1729C33.9102 42.1729 36.1484 39.9343 36.1484 37.1729V34.6421H0V37.1729C0 39.9343 2.23828 42.1729 5 42.1729H31.1484ZM14.5684 23.8394H2V25.9128C2 28.5212 4.61914 31.1357 8.2832 31.1357C11.9473 31.1357 14.5684 28.5212 14.5684 25.9128V23.8394ZM0 21.8394V25.9128C0 29.8833 3.79102 33.1357 8.2832 33.1357C12.7754 33.1357 16.5684 29.8833 16.5684 25.9128V21.8394H0ZM21.5801 23.8394H34.1484V25.9128C34.1484 28.5212 31.5273 31.1357 27.8633 31.1357C24.1992 31.1357 21.5801 28.5212 21.5801 25.9128V23.8394ZM19.5801 25.9128V21.8394H36.1484V25.9128C36.1484 29.8833 32.3555 33.1357 27.8633 33.1357C23.3711 33.1357 19.5801 29.8833 19.5801 25.9128Z" transform="translate(13.8027 0.24707)" fill="#828282"/>
</svg>
