<svg width="63" height="63" viewBox="0 0 63 63" fill="none" xmlns="http://www.w3.org/2000/svg">
<path opacity="0.5" fill-rule="evenodd" clip-rule="evenodd" d="M31.1238 2C15.0392 2 2 15.0392 2 31.1238C2 47.2085 15.0392 60.2476 31.1238 60.2476C47.2085 60.2476 60.2476 47.2085 60.2476 31.1238C60.2476 29.1277 60.047 27.1795 59.665 25.298C59.5552 24.7567 59.9049 24.2289 60.4461 24.119C60.9874 24.0092 61.5152 24.3589 61.6251 24.9001C62.0334 26.9119 62.2476 28.9934 62.2476 31.1238C62.2476 48.313 48.313 62.2476 31.1238 62.2476C13.9346 62.2476 0 48.313 0 31.1238C0 13.9346 13.9346 0 31.1238 0C33.2543 0 35.3357 0.214205 37.3475 0.622572C37.8888 0.732439 38.2385 1.26027 38.1286 1.80152C38.0187 2.34276 37.4909 2.69247 36.9496 2.5826C35.0681 2.20066 33.1199 2 31.1238 2Z" fill="#828282"/>
<path fill-rule="evenodd" clip-rule="evenodd" d="M42.4199 2.3418V0L40.4199 0.000488281V2.3418C39.502 2.49512 38.6543 2.8562 37.9258 3.375L36.0488 1.49902L34.6348 2.91382L36.5117 4.78857C35.9922 5.5166 35.6309 6.36499 35.4766 7.28394L33.1348 7.28467V9.28467L35.4766 9.28394C35.6309 10.2024 35.9922 11.0505 36.5117 11.7783L34.6348 13.6558L36.0488 15.0696L37.9258 13.1924C38.6543 13.7117 39.502 14.0728 40.4199 14.2263V16.5679L42.4199 16.5676V14.2263C43.3379 14.0728 44.1855 13.7117 44.9141 13.1926L46.791 15.0691L48.2051 13.6548L46.3281 11.7783C46.8477 11.0505 47.207 10.2026 47.3613 9.28418L49.7031 9.28394V7.28394L47.3613 7.28418C47.207 6.36572 46.8477 5.51758 46.3281 4.78979L48.2051 2.91309L46.791 1.49878L44.9141 3.37549C44.1855 2.85645 43.3379 2.49536 42.4199 2.3418ZM45.4434 8.28394C45.4434 10.5068 43.6426 12.3088 41.4199 12.3088C39.1973 12.3088 37.3945 10.5068 37.3945 8.28394C37.3945 6.06128 39.1973 4.25928 41.4199 4.25928C43.6426 4.25928 45.4434 6.06128 45.4434 8.28394ZM17.1934 36.9016V26.3584H11.3008V36.9016H17.1934ZM9.16992 36.9016V26.3584H4.52148V36.9016H9.16992ZM2.39062 36.9016V26.3584H0V21.0867L18.0586 13.5557L36.1484 21.0867V26.3584H33.8926V36.9016H36.1484V42.9263H0V36.9016H2.39062ZM31.7617 36.9016V26.3584H27.1152V36.9016H31.7617ZM24.9844 36.9016V26.3584H19.3242V36.9016H24.9844ZM34.1484 22.4204L18.0605 15.7224L2 22.4194V24.3584H34.1484V22.4204ZM34.1484 38.9016V40.9263H2V38.9016H34.1484Z" transform="translate(12.2969 0.246826)" fill="#828282"/>
</svg>
