<svg width="62" height="63" viewBox="0 0 62 63" fill="none" xmlns="http://www.w3.org/2000/svg">
<path opacity="0.5" fill-rule="evenodd" clip-rule="evenodd" d="M31 2C14.9837 2 2 14.9837 2 31C2 47.0163 14.9837 60 31 60C47.0163 60 60 47.0163 60 31C60 29.0124 59.8002 27.0725 59.4199 25.1989C59.31 24.6577 59.6597 24.1299 60.201 24.02C60.7422 23.9101 61.27 24.2598 61.3799 24.8011C61.7866 26.8048 62 28.878 62 31C62 48.1208 48.1208 62 31 62C13.8792 62 0 48.1208 0 31C0 13.8792 13.8792 0 31 0C33.122 0 35.1952 0.213352 37.1989 0.620095C37.7402 0.729963 38.0899 1.25779 37.98 1.79904C37.8701 2.34029 37.3423 2.68999 36.8011 2.58012C34.9275 2.19981 32.9876 2 31 2Z" transform="translate(0 0.5)" fill="#828282"/>
<path fill-rule="evenodd" clip-rule="evenodd" d="M40.1074 5.53857V2.93994L42.5215 5.53857H40.1074ZM43.25 7.53857H38.1074V2H33.75V16H43.25V7.53857ZM30.625 43.375C31.1777 43.375 31.625 42.9272 31.625 42.375C31.625 41.8228 31.1777 41.375 30.625 41.375H27.5V34.5C27.5 33.9478 27.0527 33.5 26.5 33.5C25.9473 33.5 25.5 33.9478 25.5 34.5V41.375H23V33.75C23 33.1978 22.5527 32.75 22 32.75C21.4473 32.75 21 33.1978 21 33.75V41.375H18.5V35.25C18.5 34.6978 18.0527 34.25 17.5 34.25C16.9473 34.25 16.5 34.6978 16.5 35.25V41.375H14V38.25C14 37.6978 13.5527 37.25 13 37.25C12.4473 37.25 12 37.6978 12 38.25V41.375H9.5V38.25C9.5 37.6978 9.05273 37.25 8.5 37.25C7.94727 37.25 7.5 37.6978 7.5 38.25V41.375H3.56836L8.26953 35.1064L13.4668 35.106L17.9688 30.0376L22.4395 30.0369L27.75 24.5652V29.9319C27.75 30.4841 28.1973 30.9319 28.75 30.9319C29.3027 30.9319 29.75 30.4841 29.75 29.9319V21.1592H20.6953C20.1426 21.1592 19.6953 21.6069 19.6953 22.1592C19.6953 22.7114 20.1426 23.1592 20.6953 23.1592H26.3242L21.5566 28.073L17.0312 28.0737L12.5312 33.1418L7.23047 33.1426L2 40.1165V19.5C2 18.9478 1.55273 18.5 1 18.5C0.447266 18.5 0 18.9478 0 19.5V43.375H30.625ZM31.75 0H40.1074L45.25 5.53857V18H31.75V0Z" transform="translate(15)" fill="#828282"/>
</svg>
