<svg width="64" height="64" viewBox="0 0 64 64" fill="none" xmlns="http://www.w3.org/2000/svg">
<path opacity="0.5" fill-rule="evenodd" clip-rule="evenodd" d="M31.9091 2C15.3908 2 2 15.3908 2 31.9091C2 48.4274 15.3908 61.8182 31.9091 61.8182C48.4274 61.8182 61.8182 48.4274 61.8182 31.9091C61.8182 29.8592 61.6121 27.8585 61.2199 25.9262C61.11 25.385 61.4597 24.8571 62.0009 24.7473C62.5422 24.6374 63.07 24.9871 63.1799 25.5283C63.5986 27.5909 63.8182 29.7248 63.8182 31.9091C63.8182 49.532 49.532 63.8182 31.9091 63.8182C14.2862 63.8182 0 49.532 0 31.9091C0 14.2862 14.2862 0 31.9091 0C34.0933 0 36.2273 0.219612 38.2898 0.63828C38.8311 0.748148 39.1808 1.27598 39.0709 1.81723C38.9611 2.35847 38.4332 2.70817 37.892 2.59831C35.9597 2.20607 33.959 2 31.9091 2Z" fill="#828282"/>
<path fill-rule="evenodd" clip-rule="evenodd" d="M44.8184 16.4543C44.8184 17.0066 45.2656 17.4543 45.8184 17.4543C46.3691 17.4543 46.8184 17.0068 46.8184 16.4543V5.86377H47.3633C47.916 5.86377 48.3633 5.41602 48.3633 4.86377C48.3633 4.31152 47.916 3.86377 47.3633 3.86377H46.8184V1C46.8184 0.44751 46.3691 9.97919e-08 45.8184 9.97919e-08C45.2656 -0.000244041 44.8184 0.44751 44.8184 0.999756V3.86377H44.2734C43.7207 3.86377 43.2734 4.31152 43.2734 4.86377C43.2734 5.41602 43.7207 5.86377 44.2734 5.86377H44.8184V16.4543ZM29.8184 42.1135H32.4531V33.7856C32.4531 33.2334 32.9004 32.7856 33.4531 32.7856C34.0059 32.7856 34.4531 33.2334 34.4531 33.7856V44.2727H0V38.2012C0 37.6489 0.447266 37.2012 1 37.2012C1.55273 37.2012 2 37.6489 2 38.2012V42.1135H4.63672V33.7856C4.63672 33.2334 5.08398 32.7856 5.63672 32.7856C6.18945 32.7856 6.63672 33.2334 6.63672 33.7856V42.1135H9.27148V36.5454C9.27148 35.9932 9.71875 35.5454 10.2715 35.5454C10.8242 35.5454 11.2715 35.9932 11.2715 36.5454V42.1135H13.9082V32.6819C13.9082 32.1294 14.3555 31.6819 14.9082 31.6819C15.4609 31.6819 15.9082 32.1294 15.9082 32.6819V42.1135H18.5449V34.8896C18.5449 34.3374 18.9922 33.8896 19.5449 33.8896C20.0977 33.8896 20.5449 34.3374 20.5449 34.8896V42.1135H23.1816V28.8181C23.1816 28.2659 23.6289 27.8181 24.1816 27.8181C24.7344 27.8181 25.1816 28.2659 25.1816 28.8181V42.1135H27.8184V25.7273C27.8184 25.175 28.2656 24.7273 28.8184 24.7273C29.3711 24.7273 29.8184 25.175 29.8184 25.7273V42.1135ZM39.6367 17.4543C39.084 17.4543 38.6367 17.0066 38.6367 16.4543V12.0454H38.0918C37.5391 12.0454 37.0918 11.5977 37.0918 11.0454C37.0918 10.4932 37.5391 10.0454 38.0918 10.0454H38.6367V0.999756C38.6367 0.44751 39.084 -0.000244041 39.6367 9.97919e-08C40.1875 9.97919e-08 40.6367 0.44751 40.6367 1V10.0454H41.1816C41.7344 10.0454 42.1816 10.4932 42.1816 11.0454C42.1816 11.5977 41.7344 12.0454 41.1816 12.0454H40.6367V16.4543C40.6367 17.0068 40.1875 17.4543 39.6367 17.4543ZM32.4551 16.4543C32.4551 17.0066 32.9023 17.4543 33.4551 17.4543C34.0059 17.4543 34.4551 17.0068 34.4551 16.4543V8.18188H34.998C35.5508 8.18188 35.998 7.73413 35.998 7.18188C35.998 6.62964 35.5508 6.18188 34.998 6.18188H34.4551V1C34.4551 0.44751 34.0059 9.97919e-08 33.4551 9.97919e-08C32.9023 -0.000244041 32.4551 0.44751 32.4551 0.999756V6.18188H31.9082C31.3555 6.18188 30.9082 6.62964 30.9082 7.18188C30.9082 7.73413 31.3555 8.18188 31.9082 8.18188H32.4551V16.4543ZM29.5215 20.8806C30.0449 20.7061 30.3281 20.1396 30.1523 19.6157C29.9785 19.0918 29.4121 18.8086 28.8887 18.9832L22.791 21.0156L18.7598 26.5137L14.7539 25.4214L9.85547 28.4355L5.55078 26.0869L0.400391 29.9502C-0.0410156 30.2815 -0.130859 30.9082 0.199219 31.3501C0.53125 31.792 1.1582 31.8813 1.59961 31.55L5.72266 28.4585L9.91602 30.7466L15.0645 27.5789L19.5586 28.8047L24.0273 22.7117L29.5215 20.8806Z" transform="translate(14.4531)" fill="#828282"/>
</svg>
