<svg width="62" height="57" viewBox="0 0 62 57" fill="none" xmlns="http://www.w3.org/2000/svg">
<path fill-rule="evenodd" clip-rule="evenodd" d="M31 2C14.9822 2 2 14.9632 2 30.9506C2 41.0756 7.20584 49.9879 15.0969 55.1638C15.5587 55.4667 15.6875 56.0867 15.3846 56.5485C15.0816 57.0103 14.4617 57.1391 13.9999 56.8362C5.57007 51.3068 0 41.7787 0 30.9506C0 13.8555 13.8807 0 31 0C48.1193 0 62 13.8555 62 30.9506C62 41.7787 56.4299 51.3068 48.0001 56.8362C47.5383 57.1391 46.9184 57.0103 46.6154 56.5485C46.3125 56.0867 46.4413 55.4667 46.9031 55.1638C54.7942 49.9879 60 41.0756 60 30.9506C60 14.9632 47.0178 2 31 2Z" fill="#89A0B3"/>
<path fill-rule="evenodd" clip-rule="evenodd" d="M12.1367 20.8598L20.4453 12.5511C20.8359 12.1606 21.4688 12.1606 21.8594 12.5511C22.25 12.9417 22.25 13.5748 21.8594 13.9653L11.0762 24.7487L0.292969 13.9653C-0.0976562 13.5748 -0.0976562 12.9417 0.292969 12.5511C0.683594 12.1606 1.31641 12.1606 1.70703 12.5511L10.1367 20.9809V1C10.1367 0.447708 10.584 0 11.1367 0C11.6895 0 12.1367 0.447708 12.1367 1V20.8598Z" transform="translate(20 19.3175)" fill="white"/>
</svg>
