<svg width="16" height="16" viewBox="0 0 16 16" fill="none" xmlns="http://www.w3.org/2000/svg">
<path fill-rule="evenodd" clip-rule="evenodd" d="M0.292969 13.0208C-0.0976562 13.4113 -0.0976562 14.0445 0.292969 14.435C0.683594 14.8256 1.31641 14.8256 1.70703 14.435L7.36523 8.77808L13.0215 14.435C13.4121 14.8256 14.0449 14.8256 14.4355 14.435C14.8262 14.0445 14.8262 13.4113 14.4355 13.0208L8.7793 7.36395L14.4355 1.70712C14.8262 1.31659 14.8262 0.683441 14.4355 0.292908C14.0449 -0.0976257 13.4121 -0.0976257 13.0215 0.292908L7.36523 5.94986L1.70703 0.292877C1.31641 -0.0976257 0.683594 -0.0976257 0.292969 0.292877C-0.0976562 0.683411 -0.0976562 1.31659 0.292969 1.70709L5.94922 7.36398L0.292969 13.0208Z" transform="translate(0.636719 0.953766)" fill="white"/>
</svg>
