<svg width="63" height="47" viewBox="0 0 63 47" fill="none" xmlns="http://www.w3.org/2000/svg">
<path d="M21.6964 38.8732C19.4464 37.5775 17.6786 35.6338 16.2321 33.5282L13.9821 35.7958C16.0714 37.5775 18.8036 38.7113 21.6964 38.8732ZM9.48214 30.9366H11.5714L13.8214 28.669C13.3393 27.0493 13.0179 25.4296 13.0179 23.6479H7.39286C7.55357 26.4014 8.19643 28.831 9.48214 30.9366ZM9.48214 15.0634C8.19643 17.169 7.39286 19.5986 7.39286 22.3521H12.8571C13.0179 19.7606 13.5 17.331 14.625 15.0634H9.48214ZM10.4464 13.6056H15.2679C16.7143 11.0141 18.6429 8.90845 21.0536 7.28873C16.875 7.93662 13.0179 10.3662 10.4464 13.6056ZM22.1786 13.6056V8.42253C20.0893 9.71831 18.3214 11.5 17.0357 13.7676H22.1786V13.6056ZM22.1786 15.0634H16.0714C14.9464 17.169 14.3036 19.7606 14.1429 22.3521H20.0893L21.8571 20.5704H22.1786V15.0634ZM22.1786 27.6972L18.8036 31.0986H22.1786V27.6972ZM14.3036 23.8099C14.3036 25.1056 14.625 26.4014 14.9464 27.6972L18.8036 23.8099H14.3036ZM22.1786 32.3944H17.3571L17.0357 32.7183C18.3214 34.662 20.0893 36.4437 22.0179 37.7394V32.3944H22.1786ZM34.5536 8.42253C35.0357 8.74648 35.3571 9.07042 35.8393 9.55634C36.6429 8.74648 37.4464 8.09859 38.4107 7.4507C36.9643 7.61268 35.8393 7.93662 34.5536 8.42253ZM39.375 8.42253C38.4107 9.07042 37.6071 9.71831 36.8036 10.5282C37.7679 11.5 38.5714 12.6338 39.2143 13.7676H39.375V8.42253ZM36 36.7676C35.5179 37.2535 35.0357 37.5775 34.5536 38.0634C35.8393 38.5493 37.2857 38.8732 38.8929 39.0352C37.7679 38.2254 36.8036 37.5775 36 36.7676ZM39.375 32.3944C38.5714 33.5282 37.7679 34.662 36.9643 35.6338C37.7679 36.2817 38.5714 36.9296 39.375 37.5775V32.3944ZM53.0357 32.3944H47.5714C45.9643 35.1479 43.875 37.2535 41.3036 38.8732C46.125 38.7113 50.4643 36.1197 53.0357 32.3944ZM56.0893 23.8099H50.1429C49.9821 26.4014 49.5 28.831 48.375 31.0986H54C55.125 28.831 55.9286 26.4014 56.0893 23.8099ZM51.75 15.0634L49.3393 17.493C49.8214 18.9507 50.1429 20.5704 50.1429 22.3521H56.0893C55.9286 19.7606 55.125 17.331 54 15.0634H51.75ZM41.7857 7.28873C43.875 8.58451 45.6429 10.3662 46.9286 12.4718L49.3393 10.0423C47.0893 8.58451 44.5179 7.61268 41.7857 7.28873ZM40.8214 13.6056H45.9643L46.125 13.4437C44.8393 11.338 43.0714 9.55634 40.9821 8.26056V13.6056H40.8214ZM40.8214 15.0634V17.331C40.9821 17.6549 40.9821 18.1408 41.1429 18.4648L44.5179 15.0634H40.8214ZM48.2143 18.6268L44.5179 22.3521H48.6964C48.6964 21.0563 48.5357 19.7606 48.2143 18.6268ZM40.8214 30.9366H46.9286C48.0536 28.831 48.6964 26.2394 48.8571 23.6479H43.2321L41.9464 24.9437L41.625 25.2676C41.4643 26.5634 41.1429 27.6972 40.8214 28.831V30.9366ZM45.9643 32.3944H40.8214V37.5775C42.9107 36.2817 44.6786 34.5 45.9643 32.3944ZM31.6607 36.4437C33.2679 35.3099 34.7143 34.0141 35.8393 32.3944H30.5357C28.9286 35.1479 26.8393 37.2535 24.2679 38.8732C26.8393 38.8732 29.4107 37.9014 31.6607 36.4437ZM38.7321 25.7535H32.7857C32.4643 27.5352 31.9821 29.3169 31.1786 30.9366H36.8036C37.7679 29.3169 38.4107 27.5352 38.7321 25.7535ZM31.1786 15.0634C31.9821 16.6831 32.4643 18.6268 32.7857 20.4085H38.5714C38.25 18.4648 37.6071 16.6831 36.6429 15.0634H31.1786ZM23.625 20.5704H31.5C31.1786 18.6268 30.6964 16.8451 29.7321 15.2254H23.625V20.5704ZM23.625 26.2394V31.0986H29.7321C30.5357 29.4789 31.1786 27.6972 31.5 25.9155H24.1071L23.625 26.2394ZM28.9286 32.3944H23.7857V37.5775C25.7143 36.2817 27.4821 34.5 28.9286 32.3944ZM23.625 13.6056H28.9286C27.6429 11.5 25.7143 9.71831 23.625 8.26056V13.6056ZM24.5893 7.28873C27 8.90845 29.0893 11.0141 30.5357 13.6056H35.8393C34.7143 12.1479 33.4286 10.8521 31.8214 9.71831C29.5714 8.42253 27.1607 7.61268 24.5893 7.28873ZM58.0179 8.74648L55.125 11.662C57.5357 14.9014 58.9821 18.7887 58.9821 23C58.9821 33.3662 50.625 41.7887 40.3393 41.7887C37.2857 41.7887 34.3929 40.9789 31.8214 39.6831C29.25 40.9789 26.3571 41.7887 23.3036 41.7887C19.125 41.7887 15.1071 40.331 12.0536 37.9014L9 40.9789C12.8571 44.0563 17.8393 46 23.1429 46C26.1964 46 29.0893 45.3521 31.6607 44.3803C34.3929 45.5141 37.2857 46 40.1786 46C52.875 46 63 35.6338 63 23C63 17.6549 61.0714 12.6338 58.0179 8.74648ZM23.1429 4.37324C26.1964 4.37324 29.0893 5.1831 31.6607 6.47887C34.2321 5.1831 37.125 4.37324 40.1786 4.37324C44.3571 4.37324 48.2143 5.66901 51.2679 8.09859L54.3214 5.02113C50.4643 1.78169 45.4821 0 40.0179 0C36.9643 0 34.0714 0.647887 31.5 1.61972C28.7679 0.485916 25.875 0 22.9821 0C10.2857 0 0 10.3662 0 23C0 28.507 1.92857 33.5282 5.14286 37.4155L8.35714 34.1761C6.10714 31.0986 4.66071 27.2113 4.66071 23C4.5 12.7958 12.8571 4.37324 23.1429 4.37324Z" transform="translate(0 0.211792)" fill="#E0E0E0"/>
</svg>
