<svg width="18" height="15" viewBox="0 0 18 15" fill="none" xmlns="http://www.w3.org/2000/svg">
<path fill-rule="evenodd" clip-rule="evenodd" d="M0 1C0 0.447723 0.447266 0 1 0H17C17.5527 0 18 0.447723 18 1C18 1.55228 17.5527 2 17 2H1C0.447266 2 0 1.55228 0 1ZM0 7C0 6.44772 0.447266 6 1 6H17C17.5527 6 18 6.44772 18 7C18 7.55228 17.5527 8 17 8H1C0.447266 8 0 7.55228 0 7ZM1 12C0.447266 12 0 12.4477 0 13C0 13.5523 0.447266 14 1 14H17C17.5527 14 18 13.5523 18 13C18 12.4477 17.5527 12 17 12H1Z" transform="translate(0 0.211792)" fill="white"/>
</svg>
