<svg width="62" height="63" viewBox="0 0 62 63" fill="none" xmlns="http://www.w3.org/2000/svg">
<path fill-rule="evenodd" clip-rule="evenodd" d="M31 2C14.9837 2 2 14.9837 2 31C2 47.0163 14.9837 60 31 60C47.0163 60 60 47.0163 60 31C60 29.0124 59.8002 27.0725 59.4199 25.1989C59.31 24.6577 59.6597 24.1299 60.201 24.02C60.7422 23.9101 61.27 24.2598 61.3799 24.8011C61.7866 26.8048 62 28.878 62 31C62 48.1208 48.1208 62 31 62C13.8792 62 0 48.1208 0 31C0 13.8792 13.8792 0 31 0C33.122 0 35.1952 0.213352 37.1989 0.620095C37.7402 0.729963 38.0899 1.25779 37.98 1.79904C37.8701 2.34029 37.3423 2.68999 36.8011 2.58012C34.9275 2.19981 32.9876 2 31 2Z" transform="translate(0 0.961914)" fill="#E0E0E0"/>
<path fill-rule="evenodd" clip-rule="evenodd" d="M27 0C26.4473 0 26 0.447754 26 1C26 1.55225 26.4473 2 27 2H38.75L24.707 16.043C24.3164 16.4336 24.3164 17.0667 24.707 17.4573C25.0977 17.8477 25.7305 17.8477 26.1211 17.4573L40.25 3.32837V15.25C40.25 15.8022 40.6973 16.25 41.25 16.25C41.8027 16.25 42.25 15.8022 42.25 15.25V0H27ZM20.5 34C20.5 39.1086 16.3594 43.25 11.25 43.25C6.14062 43.25 2 39.1086 2 34C2 29.2903 4.32031 25.0398 6.89648 21.8682C8.16992 20.2996 9.46289 19.0483 10.4668 18.2009C10.7617 17.9517 11.0254 17.7424 11.25 17.574C11.4746 17.7424 11.7383 17.9517 12.0332 18.2009C13.0371 19.0483 14.3301 20.2996 15.6035 21.8682C18.1797 25.0398 20.5 29.2903 20.5 34ZM22.5 34C22.5 40.2131 17.4629 45.25 11.25 45.25C5.03711 45.25 0 40.2131 0 34C0 23.2869 10.5 15.25 11.25 15.25C12 15.25 22.5 23.2869 22.5 34ZM16.5 31.5C17.0527 31.5 17.5 31.9478 17.5 32.5C17.5 34.6931 16.5391 36.3628 15.2871 37.4685C14.0625 38.5488 12.5195 39.125 11.25 39.125C10.6973 39.125 10.25 38.6772 10.25 38.125C10.25 37.5728 10.6973 37.125 11.25 37.125C11.9805 37.125 13.0625 36.7637 13.9629 35.969C14.8359 35.1997 15.5 34.0569 15.5 32.5C15.5 31.9478 15.9473 31.5 16.5 31.5Z" transform="translate(19.75 0.961914)" fill="#C1C1C1"/>
</svg>
