<svg width="62" height="62" viewBox="0 0 62 62" fill="none" xmlns="http://www.w3.org/2000/svg">
<path fill-rule="evenodd" clip-rule="evenodd" d="M31 2C14.9837 2 2 14.9837 2 31C2 47.0163 14.9837 60 31 60C47.0163 60 60 47.0163 60 31C60 29.0124 59.8002 27.0725 59.4199 25.1989C59.31 24.6577 59.6597 24.1299 60.201 24.02C60.7422 23.9101 61.27 24.2598 61.3799 24.8011C61.7866 26.8048 62 28.878 62 31C62 48.1208 48.1208 62 31 62C13.8792 62 0 48.1208 0 31C0 13.8792 13.8792 0 31 0C33.122 0 35.1952 0.213352 37.1989 0.620095C37.7402 0.729963 38.0899 1.25779 37.98 1.79904C37.8701 2.34029 37.3423 2.68999 36.8011 2.58012C34.9275 2.19981 32.9876 2 31 2Z" fill="#E0E0E0"/>
<path fill-rule="evenodd" clip-rule="evenodd" d="M28.5 1C28.5 0.447754 28.9473 0 29.5 0H44.75V15.25C44.75 15.8022 44.3027 16.25 43.75 16.25C43.1973 16.25 42.75 15.8022 42.75 15.25V3.49951L27.5 18.6658V47.75H0V12.75H20.5C21.0527 12.75 21.5 13.1978 21.5 13.75C21.5 14.3022 21.0527 14.75 20.5 14.75H2V45.75H25.5V18.2883C25.4902 18.0308 25.5801 17.7705 25.7676 17.5688C25.7793 17.5571 25.7832 17.552 25.7949 17.5408L41.4219 2H29.5C28.9473 2 28.5 1.55225 28.5 1ZM20.5 21.8298C21.0527 21.8298 21.5 21.3821 21.5 20.8298C21.5 20.2776 21.0527 19.8298 20.5 19.8298H9.3418C8.78906 19.8298 8.3418 20.2776 8.3418 20.8298C8.3418 21.3821 8.78906 21.8298 9.3418 21.8298H20.5ZM21.5 25.3298C21.5 25.8821 21.0527 26.3298 20.5 26.3298H9.3418C8.78906 26.3298 8.3418 25.8821 8.3418 25.3298C8.3418 24.7776 8.78906 24.3298 9.3418 24.3298H20.5C21.0527 24.3298 21.5 24.7776 21.5 25.3298ZM20.5 30.8298C21.0527 30.8298 21.5 30.3821 21.5 29.8298C21.5 29.2776 21.0527 28.8298 20.5 28.8298H9.3418C8.78906 28.8298 8.3418 29.2776 8.3418 29.8298C8.3418 30.3821 8.78906 30.8298 9.3418 30.8298H20.5ZM21.5 34.3298C21.5 34.8821 21.0527 35.3298 20.5 35.3298H9.3418C8.78906 35.3298 8.3418 34.8821 8.3418 34.3298C8.3418 33.7776 8.78906 33.3298 9.3418 33.3298H20.5C21.0527 33.3298 21.5 33.7776 21.5 34.3298ZM20.5 39.8298C21.0527 39.8298 21.5 39.3821 21.5 38.8298C21.5 38.2776 21.0527 37.8298 20.5 37.8298H9.3418C8.78906 37.8298 8.3418 38.2776 8.3418 38.8298C8.3418 39.3821 8.78906 39.8298 9.3418 39.8298H20.5Z" transform="translate(17.25)" fill="#C1C1C1"/>
</svg>
