<svg width="63" height="63" viewBox="0 0 63 63" fill="none" xmlns="http://www.w3.org/2000/svg">
<path fill-rule="evenodd" clip-rule="evenodd" d="M31.1235 2C15.039 2 2 15.039 2 31.1235C2 47.2079 15.039 60.2469 31.1235 60.2469C47.2079 60.2469 60.2469 47.2079 60.2469 31.1235C60.2469 29.1274 60.0462 27.1792 59.6643 25.2977C59.5545 24.7565 59.9042 24.2286 60.4454 24.1188C60.9866 24.0089 61.5145 24.3586 61.6243 24.8998C62.0327 26.9116 62.2469 28.993 62.2469 31.1235C62.2469 48.3125 48.3125 62.2469 31.1235 62.2469C13.9344 62.2469 0 48.3125 0 31.1235C0 13.9344 13.9344 0 31.1235 0C33.2539 0 35.3353 0.214202 37.3471 0.622565C37.8883 0.732432 38.238 1.26026 38.1282 1.80151C38.0183 2.34276 37.4905 2.69246 36.9492 2.58259C35.0677 2.20066 33.1195 2 31.1235 2Z" fill="#306BBA"/>
<path fill-rule="evenodd" clip-rule="evenodd" d="M43.9375 11.7671C43.9375 9.06055 42.5801 6.55957 40.9941 4.63281C40.2168 3.6875 39.4277 2.93457 38.8223 2.4292L38.7832 2.39746L38.7441 2.4292C38.1387 2.93457 37.3496 3.6875 36.5723 4.63281C34.9863 6.55957 33.6289 9.06055 33.6289 11.7671C33.6289 14.5366 35.9121 16.8271 38.7832 16.8271C41.6543 16.8271 43.9375 14.5366 43.9375 11.7671ZM38.7832 18.8271C42.7344 18.8271 45.9375 15.666 45.9375 11.7671C45.9375 5.04346 39.2598 0 38.7832 0C38.3066 0 31.6289 5.04346 31.6289 11.7671C31.6289 15.666 34.832 18.8271 38.7832 18.8271ZM41.4375 9.99951C41.9902 9.99951 42.4375 10.4473 42.4375 10.9995C42.4375 12.3755 42.0293 13.4746 41.3203 14.2397C40.6172 15.0005 39.6816 15.356 38.7832 15.356C38.2305 15.356 37.7832 14.9082 37.7832 14.356C37.7832 13.8037 38.2305 13.356 38.7832 13.356C39.1562 13.356 39.5488 13.21 39.8535 12.8809C40.1543 12.5562 40.4375 11.9771 40.4375 10.9995C40.4375 10.4473 40.8848 9.99951 41.4375 9.99951ZM28.123 30.1226C28.123 37.3364 22.2754 43.1846 15.0625 43.1846C7.84766 43.1846 2 37.3364 2 30.1226C2 22.9092 7.84766 17.061 15.0625 17.061C22.2754 17.061 28.123 22.9092 28.123 30.1226ZM30.123 30.1226C30.123 38.4409 23.3809 45.1846 15.0625 45.1846C6.74414 45.1846 0 38.4409 0 30.1226C0 21.8042 6.74414 15.061 15.0625 15.061C23.3809 15.061 30.123 21.8042 30.123 30.1226ZM12.4043 26.1367C12.4043 25.2729 13.373 24.2144 15.0625 24.2144C16.752 24.2144 17.7207 25.2729 17.7207 26.1367C17.7207 26.689 18.168 27.1367 18.7207 27.1367C19.2715 27.1367 19.7207 26.689 19.7207 26.1367C19.7207 24.0366 17.9004 22.5723 15.8457 22.2715V21.8389C15.8457 21.2866 15.3984 20.8389 14.8457 20.8389C14.293 20.8389 13.8457 21.2866 13.8457 21.8389V22.353C11.9746 22.7837 10.4043 24.1855 10.4043 26.1367C10.4043 28.5005 12.7109 30.0591 15.0625 30.0591C17.2266 30.0591 18.5801 31.4253 18.5801 32.6689C18.5801 33.9126 17.2266 35.2788 15.0625 35.2788C12.8965 35.2788 11.543 33.9126 11.543 32.6689C11.543 32.1167 11.0957 31.6689 10.543 31.6689C9.99023 31.6689 9.54297 32.1167 9.54297 32.6689C9.54297 35.0137 11.5078 36.7178 13.8457 37.1636V37.6538C13.8457 38.2061 14.293 38.6538 14.8457 38.6538C15.3984 38.6538 15.8457 38.2061 15.8457 37.6538V37.231C18.3652 36.9238 20.5801 35.1572 20.5801 32.6689C20.5801 29.9253 17.8887 28.0591 15.0625 28.0591C13.373 28.0591 12.4043 27.0005 12.4043 26.1367Z" transform="translate(16.0625 1.00049)" fill="#4982CD"/>
</svg>
