<svg width="63" height="64" viewBox="0 0 63 64" fill="none" xmlns="http://www.w3.org/2000/svg">
<path fill-rule="evenodd" clip-rule="evenodd" d="M31.5 3C15.7599 3 3 15.7599 3 31.5C3 47.2401 15.7599 60 31.5 60C47.2401 60 60 47.2401 60 31.5C60 29.546 59.8036 27.6394 59.4299 25.7984C59.2651 24.9865 59.7896 24.1948 60.6015 24.03C61.4134 23.8652 62.2051 24.3897 62.3699 25.2016C62.7833 27.2379 63 29.3444 63 31.5C63 48.897 48.897 63 31.5 63C14.103 63 0 48.897 0 31.5C0 14.103 14.103 0 31.5 0C33.6556 0 35.7621 0.216738 37.7984 0.630089C38.6103 0.79489 39.1348 1.58664 38.97 2.39851C38.8052 3.21038 38.0135 3.73493 37.2016 3.57013C35.3606 3.19643 33.454 3 31.5 3Z" transform="translate(0 0.464844)" fill="#306BBA"/>
<path fill-rule="evenodd" clip-rule="evenodd" d="M31.3711 11.7671C31.3711 14.5366 33.6543 16.8271 36.5254 16.8271C39.3965 16.8271 41.6797 14.5366 41.6797 11.7671C41.6797 9.06055 40.3223 6.55957 38.7363 4.63281C37.959 3.6875 37.1699 2.93457 36.5645 2.4292L36.5254 2.39746L36.4863 2.4292C35.8809 2.93457 35.0918 3.6875 34.3145 4.63281C32.7285 6.55957 31.3711 9.06055 31.3711 11.7671ZM36.5254 18.8271C40.4766 18.8271 43.6797 15.666 43.6797 11.7671C43.6797 5.04346 37.002 0 36.5254 0C36.0488 0 29.3711 5.04346 29.3711 11.7671C29.3711 15.666 32.5742 18.8271 36.5254 18.8271ZM2 16.3086V43.938H23.6055V23.9688H15.9453V16.3086H2ZM17.9453 17.0078L22.9062 21.9688H17.9453V17.0078ZM18.0742 14.3086L25.6055 21.8394V45.938H0V14.3086H18.0742ZM14.9688 37.6123L18.2031 34.4263V28.853L12.7402 23.8413L7.36328 28.8579V34.748L10.5508 37.6123H14.9688ZM16.2031 29.7324V33.5889L14.1504 35.6123H11.3164L9.36328 33.8564V29.7275L12.752 26.5659L16.2031 29.7324ZM40.1797 11C40.1797 10.4478 39.7324 10 39.1797 10C38.627 10 38.1797 10.4478 38.1797 11C38.1797 11.9775 37.8965 12.5562 37.5957 12.8804C37.291 13.2095 36.8984 13.3555 36.5254 13.3555C35.9727 13.3555 35.5254 13.8032 35.5254 14.3555C35.5254 14.9077 35.9727 15.3555 36.5254 15.3555C37.4238 15.3555 38.3594 15.0005 39.0625 14.2397C39.7715 13.4746 40.1797 12.376 40.1797 11Z" transform="translate(18.8203 0.211914)" fill="#4982CD"/>
</svg>
