<svg width="62" height="62" viewBox="0 0 62 62" fill="none" xmlns="http://www.w3.org/2000/svg">
<path fill-rule="evenodd" clip-rule="evenodd" d="M31 2C14.9837 2 2 14.9837 2 31C2 47.0163 14.9837 60 31 60C47.0163 60 60 47.0163 60 31C60 29.0124 59.8002 27.0725 59.4199 25.1989C59.31 24.6577 59.6597 24.1299 60.201 24.02C60.7422 23.9101 61.27 24.2598 61.3799 24.8011C61.7866 26.8048 62 28.878 62 31C62 48.1208 48.1208 62 31 62C13.8792 62 0 48.1208 0 31C0 13.8792 13.8792 0 31 0C33.122 0 35.1952 0.213352 37.1989 0.620095C37.7402 0.729963 38.0899 1.25779 37.98 1.79904C37.8701 2.34029 37.3423 2.68999 36.8011 2.58012C34.9275 2.19981 32.9876 2 31 2Z" fill="#306BBA"/>
<path fill-rule="evenodd" clip-rule="evenodd" d="M43 6.75C43 9.37354 40.873 11.5 38.25 11.5C35.627 11.5 33.5 9.37354 33.5 6.75C33.5 4.12646 35.627 2 38.25 2C40.873 2 43 4.12646 43 6.75ZM45 6.75C45 10.478 41.9785 13.5 38.25 13.5C36.75 13.5 35.3652 13.0112 34.2441 12.1836L30.8047 15.6992C30.4199 16.0938 29.7852 16.1011 29.3906 15.7148C28.9961 15.3286 28.9883 14.6958 29.375 14.3008L32.8281 10.771C31.9941 9.64795 31.5 8.25684 31.5 6.75C31.5 3.02197 34.5215 0 38.25 0C41.9785 0 45 3.02197 45 6.75ZM21.2188 31.25H16.125V35.022C17.6875 35.0835 19.1953 35.2725 20.6094 35.5728C20.9316 34.2471 21.1426 32.793 21.2188 31.25ZM21.2383 29.25H16.125V25.5215C17.7324 25.4585 19.2793 25.2603 20.7285 24.9448C21.0156 26.2739 21.1934 27.7217 21.2383 29.25ZM23.2227 31.25C23.1445 32.9536 22.9102 34.5762 22.5469 36.0708C23.6973 36.4209 24.7637 36.8501 25.7266 37.3472C26.9375 35.5801 27.7266 33.4985 27.9414 31.25H23.2227ZM20.0371 37.4971C18.8105 37.2456 17.498 37.082 16.125 37.0239V42.752C17.084 42.3369 18.1309 41.3716 19.082 39.6426C19.4355 39 19.7559 38.2812 20.0371 37.4971ZM19.9258 42.0347C20.7402 40.9302 21.4395 39.5586 21.9824 37.9907C22.8672 38.2612 23.6895 38.5806 24.4375 38.9399C23.1797 40.2676 21.6445 41.3301 19.9258 42.0347ZM14.125 42.8486V37.0142C12.6621 37.062 11.2637 37.2295 9.96289 37.4961C10.2441 38.2808 10.5645 39 10.918 39.6426C11.9531 41.5234 13.0996 42.5 14.125 42.8486ZM8.01562 37.9897C8.55859 39.5581 9.25977 40.9302 10.0742 42.0352C8.35352 41.3306 6.81836 40.2676 5.56055 38.9395C6.30859 38.5796 7.13086 38.2603 8.01562 37.9897ZM9.39062 35.5728C10.8809 35.2563 12.4727 35.0635 14.125 35.0132V31.25H8.78125C8.85742 32.793 9.06836 34.2471 9.39062 35.5728ZM6.77734 31.25C6.85547 32.9536 7.08984 34.5762 7.45312 36.0708C6.30273 36.4209 5.23633 36.8496 4.27344 37.3472C3.0625 35.5801 2.27344 33.4985 2.05859 31.25H6.77734ZM8.76172 29.25H14.125V25.5303C12.4297 25.4785 10.7949 25.2769 9.27148 24.9453C8.98438 26.2744 8.80664 27.7217 8.76172 29.25ZM7.33594 24.4365C7.00586 25.9365 6.80469 27.5566 6.75977 29.25H2.02148C2.15039 26.9805 2.86133 24.8667 4.00781 23.0562C5.00586 23.5962 6.125 24.0601 7.33594 24.4365ZM9.78906 23.0112C11.1387 23.2988 12.5957 23.479 14.125 23.5293V17.1514C13.0996 17.5 11.9531 18.4766 10.918 20.3574C10.4902 21.1362 10.1074 22.0278 9.78906 23.0112ZM10.0742 17.9658C9.17578 19.1846 8.41797 20.729 7.85352 22.5029C6.89453 22.2007 6.01172 21.8413 5.2207 21.4346C6.53711 19.9316 8.19531 18.7354 10.0742 17.9658ZM15 15C6.71484 15 0 21.7158 0 30C0 38.2842 6.71484 45 15 45C23.2852 45 30 38.2842 30 30C30 21.7158 23.2852 15 15 15ZM16.125 17.248V23.5195C17.5625 23.4585 18.9336 23.2822 20.209 23.0103C19.8906 22.0269 19.5098 21.1362 19.082 20.3574C18.1309 18.6284 17.084 17.6631 16.125 17.248ZM22.6641 24.4365C23.875 24.0601 24.9941 23.5957 25.9922 23.0562C27.1387 24.8667 27.8496 26.9805 27.9785 29.25H23.2402C23.1953 27.5566 22.9941 25.937 22.6641 24.4365ZM22.1465 22.502C21.582 20.728 20.8262 19.1836 19.9258 17.9648C21.8047 18.7344 23.4629 19.9312 24.7793 21.4341C23.9883 21.8403 23.1055 22.2002 22.1465 22.502Z" transform="translate(16 1)" fill="#4982CD"/>
</svg>
