<svg width="63" height="63" viewBox="0 0 63 63" fill="none" xmlns="http://www.w3.org/2000/svg">
<path fill-rule="evenodd" clip-rule="evenodd" d="M31.1235 2C15.039 2 2 15.039 2 31.1235C2 47.2079 15.039 60.2469 31.1235 60.2469C47.2079 60.2469 60.2469 47.2079 60.2469 31.1235C60.2469 29.1274 60.0462 27.1792 59.6643 25.2977C59.5544 24.7564 59.9042 24.2286 60.4454 24.1188C60.9866 24.0089 61.5145 24.3586 61.6243 24.8998C62.0327 26.9116 62.2469 28.993 62.2469 31.1235C62.2469 48.3125 48.3125 62.2469 31.1235 62.2469C13.9344 62.2469 0 48.3125 0 31.1235C0 13.9344 13.9344 0 31.1235 0C33.2539 0 35.3353 0.214202 37.3471 0.622565C37.8883 0.732432 38.238 1.26026 38.1282 1.80151C38.0183 2.34276 37.4905 2.69246 36.9492 2.58259C35.0677 2.20066 33.1195 2 31.1235 2Z" fill="#306BBA"/>
<path fill-rule="evenodd" clip-rule="evenodd" d="M34.123 7.78027C33.6621 7.6543 33.3438 7.52637 33.1406 7.42236C33.375 4.39404 35.916 2 39.0293 2C42.1426 2 44.6855 4.39404 44.9199 7.42236C44.7168 7.52637 44.3984 7.6543 43.9375 7.78027C42.6855 8.12354 40.9004 8.31836 39.0293 8.31836C37.1602 8.31836 35.375 8.12354 34.123 7.78027ZM31.123 7.88086C31.123 3.52832 34.6621 0 39.0293 0C43.3965 0 46.9375 3.52832 46.9375 7.88086C46.9375 9.31104 43.875 10.1118 40.4453 10.2832V15.2192V15.2412L40.4434 15.2759L40.4375 15.3804C40.4316 15.4639 40.4219 15.5771 40.3984 15.7104C40.3555 15.9727 40.2676 16.3369 40.082 16.7139C39.8926 17.0942 39.5938 17.5068 39.125 17.8223C38.6504 18.1421 38.0605 18.3208 37.3633 18.3208C36.666 18.3208 36.0781 18.1421 35.6035 17.8223C35.1348 17.5068 34.8359 17.0942 34.6465 16.7139C34.4609 16.3369 34.373 15.9727 34.3281 15.7104C34.3066 15.5771 34.2949 15.4639 34.2891 15.3804L34.2852 15.2759L34.2832 15.2412V15.2236C34.2832 15.2197 34.2832 15.2192 35.2832 15.2192H34.2832V13.9585C34.2832 13.4062 34.7305 12.9585 35.2832 12.9585C35.8359 12.9585 36.2832 13.4062 36.2832 13.9585V15.2109L36.2852 15.2393C36.2871 15.2705 36.291 15.3213 36.3027 15.3848C36.3242 15.5171 36.3652 15.6782 36.4395 15.8267C36.5117 15.9712 36.6035 16.0845 36.7188 16.1631C36.8301 16.2373 37.0215 16.3208 37.3633 16.3208C37.707 16.3208 37.8984 16.2373 38.0078 16.1631C38.125 16.0845 38.2168 15.9712 38.2891 15.8267C38.3613 15.6782 38.4043 15.5171 38.4258 15.3848L38.4434 15.2393L38.4453 15.2109V10.3125C34.6953 10.2363 31.123 9.42578 31.123 7.88086ZM31.7461 41.0435C31.7461 41.5957 31.2988 42.0435 30.7461 42.0435H0V18.0742C0 17.522 0.447266 17.0742 1 17.0742C1.55078 17.0742 2 17.522 2 18.0742V38.9946L14.1309 26.687L21.6426 26.686L26.4395 21.7437H20.7754C20.2227 21.7437 19.7754 21.2959 19.7754 20.7437C19.7754 20.1914 20.2227 19.7437 20.7754 19.7437H29.8633V28.5483C29.8633 29.1006 29.416 29.5483 28.8633 29.5483C28.3105 29.5483 27.8633 29.1006 27.8633 28.5483V23.1489L22.9375 28.2251V40.0435H30.7461C31.2988 40.0435 31.7461 40.4912 31.7461 41.0435ZM20.9375 28.6499L16.9375 28.6504V40.0435H20.9375V28.6499ZM14.9375 28.7183L10.916 32.7974C10.9297 32.8628 10.9375 32.9307 10.9375 33V40.0435H14.9375V28.7183ZM8.9375 34.8057L3.77539 40.0435H8.9375V34.8057Z" transform="translate(15.0625 0.247559)" fill="#4982CD"/>
</svg>
