<svg width="62" height="62" viewBox="0 0 62 62" fill="none" xmlns="http://www.w3.org/2000/svg">
<path fill-rule="evenodd" clip-rule="evenodd" d="M31 2C14.9837 2 2 14.9837 2 31C2 47.0163 14.9837 60 31 60C47.0163 60 60 47.0163 60 31C60 29.0124 59.8002 27.0725 59.4199 25.1989C59.31 24.6577 59.6597 24.1299 60.201 24.02C60.7422 23.9101 61.27 24.2598 61.3799 24.8011C61.7866 26.8048 62 28.878 62 31C62 48.1208 48.1208 62 31 62C13.8792 62 0 48.1208 0 31C0 13.8792 13.8792 0 31 0C33.122 0 35.1952 0.213352 37.1989 0.620095C37.7402 0.729963 38.0899 1.25779 37.98 1.79904C37.8701 2.34029 37.3423 2.68999 36.8011 2.58012C34.9275 2.19981 32.9876 2 31 2Z" fill="#306BBA"/>
<path fill-rule="evenodd" clip-rule="evenodd" d="M30.75 0C30.1973 0 29.75 0.447754 29.75 1C29.75 1.55225 30.1973 2 30.75 2H42.6328L27.9004 16.0254C27.502 16.4062 27.4863 17.0396 27.8672 17.4395C28.248 17.8394 28.8809 17.855 29.2812 17.4741L44 3.45947V15.25C44 15.8022 44.4473 16.25 45 16.25C45.5527 16.25 46 15.8022 46 15.25V0H30.75ZM15 43.25C22.1797 43.25 28 37.4297 28 30.25C28 23.0703 22.1797 17.25 15 17.25C7.82031 17.25 2 23.0703 2 30.25C2 37.4297 7.82031 43.25 15 43.25ZM15 45.25C23.2852 45.25 30 38.5342 30 30.25C30 21.9658 23.2852 15.25 15 15.25C6.71484 15.25 0 21.9658 0 30.25C0 38.5342 6.71484 45.25 15 45.25ZM8.31641 35.4072C7.91406 35.7852 7.89258 36.418 8.26953 36.8208C8.64844 37.2241 9.28125 37.2446 9.68359 36.8672L21.5703 25.73C21.9746 25.3525 21.9941 24.7197 21.6172 24.3164C21.2383 23.9136 20.6055 23.8931 20.2031 24.2705L8.31641 35.4072ZM19.875 35.75C20.6348 35.75 21.25 35.1343 21.25 34.375C21.25 33.6157 20.6348 33 19.875 33C19.1152 33 18.5 33.6157 18.5 34.375C18.5 35.1343 19.1152 35.75 19.875 35.75ZM19.875 37.75C21.7383 37.75 23.25 36.2388 23.25 34.375C23.25 32.5112 21.7383 31 19.875 31C18.0117 31 16.5 32.5112 16.5 34.375C16.5 36.2388 18.0117 37.75 19.875 37.75ZM12.25 25.375C12.25 26.1343 11.6348 26.75 10.875 26.75C10.1152 26.75 9.5 26.1343 9.5 25.375C9.5 24.6157 10.1152 24 10.875 24C11.6348 24 12.25 24.6157 12.25 25.375ZM14.25 25.375C14.25 27.2388 12.7383 28.75 10.875 28.75C9.01172 28.75 7.5 27.2388 7.5 25.375C7.5 23.5112 9.01172 22 10.875 22C12.7383 22 14.25 23.5112 14.25 25.375Z" transform="translate(16 0.75)" fill="#4982CD"/>
</svg>
