<svg width="62" height="62" viewBox="0 0 62 62" fill="none" xmlns="http://www.w3.org/2000/svg">
<path fill-rule="evenodd" clip-rule="evenodd" d="M31 2C14.9837 2 2 14.9837 2 31C2 47.0163 14.9837 60 31 60C47.0163 60 60 47.0163 60 31C60 29.0124 59.8002 27.0725 59.4199 25.1989C59.31 24.6577 59.6597 24.1299 60.201 24.02C60.7422 23.9101 61.27 24.2598 61.3799 24.8011C61.7866 26.8048 62 28.878 62 31C62 48.1208 48.1208 62 31 62C13.8792 62 0 48.1208 0 31C0 13.8792 13.8792 0 31 0C33.122 0 35.1952 0.213352 37.1989 0.620095C37.7402 0.729963 38.0899 1.25779 37.98 1.79904C37.8701 2.34029 37.3423 2.68999 36.8011 2.58012C34.9275 2.19981 32.9876 2 31 2Z" fill="#E0E0E0"/>
<path fill-rule="evenodd" clip-rule="evenodd" d="M45.1855 15.7778C48.9902 15.7778 52.0742 12.6935 52.0742 8.88892C52.0742 5.08429 48.9902 2 45.1855 2C41.3809 2 38.2969 5.08429 38.2969 8.88892C38.2969 12.6935 41.3809 15.7778 45.1855 15.7778ZM45.1855 17.7778C50.0957 17.7778 54.0742 13.7981 54.0742 8.88892C54.0742 3.97968 50.0957 0 45.1855 0C40.2773 0 36.2969 3.97968 36.2969 8.88892C36.2969 11.0732 37.0859 13.0735 38.3926 14.6212L28.1953 24.4786C27.2949 23.7913 26.2324 23.3057 25.0742 23.0893V16.9331C27.2539 16.4729 28.8887 14.5386 28.8887 12.2222C28.8887 9.56305 26.7344 7.40741 24.0742 7.40741C21.416 7.40741 19.2598 9.56305 19.2598 12.2222C19.2598 14.5384 20.8965 16.4725 23.0742 16.933V22.9894C21.5391 23.1188 20.1387 23.7155 19.0137 24.6367L14.627 20.2496C15.2109 19.453 15.5547 18.4705 15.5547 17.4074C15.5547 14.7482 13.4004 12.5926 10.7402 12.5926C8.08203 12.5926 5.92578 14.7482 5.92578 17.4074C5.92578 20.0665 8.08203 22.2222 10.7402 22.2222C11.6113 22.2222 12.4297 21.9907 13.1348 21.5856L17.6504 26.1013C16.9121 27.147 16.4375 28.3925 16.3242 29.7407H9.52539C9.06445 27.5615 7.13086 25.9259 4.81445 25.9259C2.15625 25.9259 0 28.0815 0 30.7407C0 33.3998 2.15625 35.5555 4.81445 35.5555C7.13086 35.5555 9.06445 33.9199 9.52539 31.7407H16.4238C16.6738 33.0758 17.2812 34.2848 18.1445 35.2641L14.1562 39.33C13.3906 38.8174 12.4707 38.5185 11.4805 38.5185C8.82227 38.5185 6.66602 40.6741 6.66602 43.3333C6.66602 45.9924 8.82227 48.1481 11.4805 48.1481C14.1406 48.1481 16.2949 45.9924 16.2949 43.3333C16.2949 42.3886 16.0234 41.5075 15.5527 40.764L19.6582 36.576C20.6562 37.2278 21.8203 37.6456 23.0742 37.7513V44.5485C20.8965 45.0089 19.2598 46.9431 19.2598 49.2592C19.2598 51.9183 21.416 54.074 24.0742 54.074C26.7344 54.074 28.8887 51.9183 28.8887 49.2592C28.8887 46.9428 27.2539 45.0085 25.0742 44.5483V37.6514C26.2285 37.4356 27.2891 36.952 28.1875 36.2676L32.6289 40.7093C32.1367 41.4641 31.8516 42.3654 31.8516 43.3333C31.8516 45.9924 34.0078 48.1481 36.666 48.1481C39.3262 48.1481 41.4805 45.9924 41.4805 43.3333C41.4805 40.6741 39.3262 38.5185 36.666 38.5185C35.6992 38.5185 34.7969 38.804 34.043 39.2953L29.6016 34.8531C30.2852 33.9545 30.7676 32.8947 30.9844 31.7407H37.8809C38.3418 33.9199 40.2754 35.5555 42.5918 35.5555C45.252 35.5555 47.4062 33.3998 47.4062 30.7407C47.4062 28.0815 45.252 25.9259 42.5918 25.9259C40.2754 25.9259 38.3418 27.5615 37.8809 29.7407H31.084C30.9629 28.3027 30.4316 26.9816 29.6074 25.8952L39.8477 15.9966C41.334 17.1149 43.1816 17.7778 45.1855 17.7778ZM13.2246 41.1241C13.2754 41.2525 13.3496 41.3729 13.4551 41.4756C13.5449 41.5632 13.6484 41.6291 13.7559 41.6764C14.0957 42.1412 14.2949 42.7139 14.2949 43.3333C14.2949 44.8879 13.0352 46.1481 11.4805 46.1481C9.92578 46.1481 8.66602 44.8879 8.66602 43.3333C8.66602 41.7787 9.92578 40.5185 11.4805 40.5185C12.1387 40.5185 12.7441 40.7449 13.2246 41.1241ZM13.5547 17.4074C13.5547 18.1847 13.2402 18.8884 12.7305 19.3978C12.6562 19.4408 12.5859 19.4939 12.5215 19.558L12.4375 19.6528C11.9648 20.0102 11.377 20.2222 10.7402 20.2222C9.18555 20.2222 7.92578 18.962 7.92578 17.4074C7.92578 15.8528 9.18555 14.5926 10.7402 14.5926C12.2949 14.5926 13.5547 15.8528 13.5547 17.4074ZM27.8301 33.866C28.6289 32.9234 29.1113 31.7032 29.1113 30.3704C29.1113 27.3839 26.6914 24.963 23.7051 24.963C20.7188 24.963 18.2969 27.3839 18.2969 30.3704C18.2969 33.3568 20.7188 35.7778 23.7051 35.7778C25.0371 35.7778 26.2578 35.2956 27.1992 34.4962C27.2461 34.3544 27.3281 34.2206 27.4414 34.1077C27.5547 33.9948 27.6875 33.9136 27.8301 33.866ZM36.666 46.1481C38.2207 46.1481 39.4805 44.8879 39.4805 43.3333C39.4805 41.7787 38.2207 40.5185 36.666 40.5185C35.1113 40.5185 33.8516 41.7787 33.8516 43.3333C33.8516 44.8879 35.1113 46.1481 36.666 46.1481ZM42.5918 33.5555C44.1465 33.5555 45.4062 32.2953 45.4062 30.7407C45.4062 29.1862 44.1465 27.9259 42.5918 27.9259C41.0371 27.9259 39.7773 29.1862 39.7773 30.7407C39.7773 32.2953 41.0371 33.5555 42.5918 33.5555ZM26.8887 49.2592C26.8887 50.8138 25.6289 52.074 24.0742 52.074C22.5195 52.074 21.2598 50.8138 21.2598 49.2592C21.2598 47.7047 22.5195 46.4444 24.0742 46.4444C25.6289 46.4444 26.8887 47.7047 26.8887 49.2592ZM24.0742 15.037C25.6289 15.037 26.8887 13.7768 26.8887 12.2222C26.8887 10.6677 25.6289 9.40741 24.0742 9.40741C22.5195 9.40741 21.2598 10.6677 21.2598 12.2222C21.2598 13.7768 22.5195 15.037 24.0742 15.037ZM7.62891 30.7407C7.62891 32.2953 6.36914 33.5555 4.81445 33.5555C3.25977 33.5555 2 32.2953 2 30.7407C2 29.1862 3.25977 27.9259 4.81445 27.9259C6.36914 27.9259 7.62891 29.1862 7.62891 30.7407Z" transform="translate(6.92578 0.259277)" fill="#C1C1C1"/>
</svg>
