<svg width="62" height="62" viewBox="0 0 62 62" fill="none" xmlns="http://www.w3.org/2000/svg">
<path fill-rule="evenodd" clip-rule="evenodd" d="M31 2C14.9837 2 2 14.9837 2 31C2 47.0163 14.9837 60 31 60C47.0163 60 60 47.0163 60 31C60 29.0124 59.8002 27.0725 59.4199 25.1989C59.31 24.6577 59.6597 24.1299 60.201 24.02C60.7422 23.9101 61.27 24.2598 61.3799 24.8011C61.7866 26.8048 62 28.878 62 31C62 48.1208 48.1208 62 31 62C13.8792 62 0 48.1208 0 31C0 13.8792 13.8792 0 31 0C33.122 0 35.1952 0.213352 37.1989 0.620095C37.7402 0.729963 38.0899 1.25779 37.98 1.79904C37.8701 2.34029 37.3423 2.68999 36.8011 2.58012C34.9275 2.19981 32.9876 2 31 2Z" fill="#E0E0E0"/>
<path fill-rule="evenodd" clip-rule="evenodd" d="M46.9997 1C46.9997 0.447693 46.5525 0 45.9997 0C45.447 0 44.9997 0.447693 44.9997 1V13.75C44.9997 14.3023 45.447 14.75 45.9997 14.75C46.5525 14.75 46.9997 14.3023 46.9997 13.75V1ZM41.7497 4.75C41.7497 4.19769 41.3025 3.75 40.7497 3.75C40.197 3.75 39.7497 4.19769 39.7497 4.75V13.75C39.7497 14.3023 40.197 14.75 40.7497 14.75C41.3025 14.75 41.7497 14.3023 41.7497 13.75V4.75ZM35.4997 7.5C36.0525 7.5 36.4997 7.94769 36.4997 8.5V13.75C36.4997 14.3023 36.0525 14.75 35.4997 14.75C34.947 14.75 34.4997 14.3023 34.4997 13.75V8.5C34.4997 7.94769 34.947 7.5 35.4997 7.5ZM10.6658 46.9965C11.2165 47.0424 11.7009 46.6334 11.7458 46.0831C11.7927 45.5327 11.3826 45.0493 10.8318 45.0035L3.63646 44.4039L9.99388 37.6691C10.3728 37.2678 10.3454 36.643 9.93529 36.2735C9.52318 35.904 8.88256 35.9297 8.50365 36.331L2.53685 42.6548L1.99584 36.1669C1.95092 35.6166 1.46654 35.2076 0.915759 35.2535C0.366931 35.2993 -0.0432251 35.7827 0.0036499 36.3331L0.823962 46.1763L10.6658 46.9965ZM32.2693 36.037C32.3142 35.4865 31.904 35.0042 31.3533 34.9598C30.8025 34.9153 30.3201 35.3256 30.2771 35.8761L29.7146 42.8497L23.449 36.3964C23.0642 36.0002 22.4392 35.9986 22.0525 36.3929C21.6658 36.7872 21.6638 37.4281 22.0486 37.8243L28.4509 44.418L21.3728 45.0034C20.822 45.049 20.4119 45.532 20.4587 46.0825C20.5037 46.6328 20.9861 47.0421 21.5369 46.9966L31.4509 46.1766L32.2693 36.037ZM0.105212 24.088C0.0602905 24.6385 0.470447 25.1208 1.02123 25.1652C1.57201 25.2097 2.05443 24.7994 2.0974 24.2489L2.6599 17.2753L8.92552 23.7286C9.31029 24.1248 9.93529 24.1264 10.322 23.7321C10.7087 23.3378 10.7107 22.6969 10.3259 22.3007L3.92357 15.707L11.0017 15.1216C11.5525 15.076 11.9626 14.593 11.9158 14.0425C11.8708 13.4922 11.3884 13.0829 10.8376 13.1284L0.923572 13.9484L0.105212 24.088ZM32.1658 24.088C32.2107 24.6385 31.8005 25.1208 31.2497 25.1652C30.699 25.2097 30.2165 24.7994 30.1736 24.2489L29.6111 17.2772L23.3474 23.7286C22.9626 24.1248 22.3376 24.1264 21.9509 23.7321C21.5642 23.3378 21.5622 22.6969 21.947 22.3007L28.3494 15.7072L21.2693 15.1216C20.7185 15.076 20.3083 14.593 20.3552 14.0425C20.4001 13.4922 20.8826 13.0829 21.4333 13.1284L31.3474 13.9484L32.1658 24.088ZM19.2497 30.25C19.2497 32.0449 17.7947 33.5 15.9997 33.5C14.2048 33.5 12.7497 32.0449 12.7497 30.25C12.7497 28.7554 13.5427 27.3454 14.5954 26.2116C15.0915 25.678 15.5994 25.2581 15.9997 24.9781C16.4001 25.2581 16.9079 25.678 17.404 26.2116C18.4568 27.3454 19.2497 28.7554 19.2497 30.25ZM21.2497 30.25C21.2497 33.1495 18.9001 35.5 15.9997 35.5C13.0994 35.5 10.7497 33.1495 10.7497 30.25C10.7497 25.8505 15.3494 22.75 15.9997 22.75C16.6501 22.75 21.2497 25.8505 21.2497 30.25Z" transform="translate(15)" fill="#C1C1C1"/>
</svg>
